<mxfile host="app.diagrams.net" modified="2023-05-08T03:36:12.553Z" agent="Mozilla/5.0 (Windows NT 10.0; Win64; x64) AppleWebKit/537.36 (KHTML, like Gecko) Chrome/112.0.0.0 Safari/537.36" etag="o9HfF5W2gDxd-7EgcAyX" version="21.2.9" type="github">
  <diagram name="第 1 页" id="Th7KhgQFt4huXZ7-MJ2P">
    <mxGraphModel dx="2901" dy="1116" grid="1" gridSize="10" guides="1" tooltips="1" connect="1" arrows="1" fold="1" page="1" pageScale="1" pageWidth="827" pageHeight="1169" math="0" shadow="0">
      <root>
        <mxCell id="0" />
        <mxCell id="1" parent="0" />
        <mxCell id="WYmtYS3hTp5bzMOtJRpz-6" style="edgeStyle=orthogonalEdgeStyle;rounded=0;orthogonalLoop=1;jettySize=auto;html=1;exitX=1;exitY=0.5;exitDx=0;exitDy=0;entryX=0;entryY=0.44;entryDx=0;entryDy=0;entryPerimeter=0;" edge="1" parent="1" source="WYmtYS3hTp5bzMOtJRpz-2" target="WYmtYS3hTp5bzMOtJRpz-3">
          <mxGeometry relative="1" as="geometry">
            <mxPoint x="200" y="440" as="sourcePoint" />
          </mxGeometry>
        </mxCell>
        <mxCell id="WYmtYS3hTp5bzMOtJRpz-7" style="edgeStyle=orthogonalEdgeStyle;rounded=0;orthogonalLoop=1;jettySize=auto;html=1;exitX=1;exitY=0.5;exitDx=0;exitDy=0;entryX=0;entryY=0.5;entryDx=0;entryDy=0;" edge="1" parent="1" source="WYmtYS3hTp5bzMOtJRpz-2" target="WYmtYS3hTp5bzMOtJRpz-4">
          <mxGeometry relative="1" as="geometry" />
        </mxCell>
        <mxCell id="WYmtYS3hTp5bzMOtJRpz-8" style="edgeStyle=orthogonalEdgeStyle;rounded=0;orthogonalLoop=1;jettySize=auto;html=1;entryX=0;entryY=0.5;entryDx=0;entryDy=0;" edge="1" parent="1" source="WYmtYS3hTp5bzMOtJRpz-2" target="WYmtYS3hTp5bzMOtJRpz-5">
          <mxGeometry relative="1" as="geometry" />
        </mxCell>
        <mxCell id="WYmtYS3hTp5bzMOtJRpz-11" style="edgeStyle=orthogonalEdgeStyle;rounded=0;orthogonalLoop=1;jettySize=auto;html=1;entryX=0;entryY=0.5;entryDx=0;entryDy=0;" edge="1" parent="1" source="WYmtYS3hTp5bzMOtJRpz-2" target="WYmtYS3hTp5bzMOtJRpz-9">
          <mxGeometry relative="1" as="geometry" />
        </mxCell>
        <mxCell id="WYmtYS3hTp5bzMOtJRpz-12" style="edgeStyle=orthogonalEdgeStyle;rounded=0;orthogonalLoop=1;jettySize=auto;html=1;entryX=0;entryY=0.5;entryDx=0;entryDy=0;" edge="1" parent="1" source="WYmtYS3hTp5bzMOtJRpz-2" target="WYmtYS3hTp5bzMOtJRpz-10">
          <mxGeometry relative="1" as="geometry">
            <mxPoint x="360" y="890" as="targetPoint" />
          </mxGeometry>
        </mxCell>
        <mxCell id="WYmtYS3hTp5bzMOtJRpz-2" value="" style="rounded=1;whiteSpace=wrap;html=1;absoluteArcSize=1;arcSize=14;strokeWidth=2;" vertex="1" parent="1">
          <mxGeometry x="-130" y="520" width="100" height="80" as="geometry" />
        </mxCell>
        <mxCell id="WYmtYS3hTp5bzMOtJRpz-3" value="基础" style="rounded=1;whiteSpace=wrap;html=1;absoluteArcSize=1;arcSize=14;strokeWidth=2;" vertex="1" parent="1">
          <mxGeometry x="364" y="200" width="100" height="80" as="geometry" />
        </mxCell>
        <mxCell id="WYmtYS3hTp5bzMOtJRpz-4" value="框架" style="rounded=1;whiteSpace=wrap;html=1;absoluteArcSize=1;arcSize=14;strokeWidth=2;" vertex="1" parent="1">
          <mxGeometry x="364" y="360" width="100" height="80" as="geometry" />
        </mxCell>
        <mxCell id="WYmtYS3hTp5bzMOtJRpz-5" value="分布式" style="rounded=1;whiteSpace=wrap;html=1;absoluteArcSize=1;arcSize=14;strokeWidth=2;" vertex="1" parent="1">
          <mxGeometry x="364" y="520" width="100" height="80" as="geometry" />
        </mxCell>
        <mxCell id="WYmtYS3hTp5bzMOtJRpz-9" value="高并发" style="rounded=1;whiteSpace=wrap;html=1;absoluteArcSize=1;arcSize=14;strokeWidth=2;" vertex="1" parent="1">
          <mxGeometry x="364" y="680" width="100" height="80" as="geometry" />
        </mxCell>
        <mxCell id="WYmtYS3hTp5bzMOtJRpz-10" value="系统优化" style="rounded=1;whiteSpace=wrap;html=1;absoluteArcSize=1;arcSize=14;strokeWidth=2;" vertex="1" parent="1">
          <mxGeometry x="364" y="840" width="100" height="80" as="geometry" />
        </mxCell>
      </root>
    </mxGraphModel>
  </diagram>
</mxfile>
